<svg width="19" height="20" viewBox="0 0 19 20" fill="none" xmlns="http://www.w3.org/2000/svg">
<circle cx="9.5" cy="9.60254" r="9" stroke="#F2F5F7"/>
<path fill-rule="evenodd" clip-rule="evenodd" d="M6.05745 15.0311C5.95477 15.0311 5.85511 14.9938 5.77746 14.9255L4.37877 13.6964C3.8878 13.207 3.98919 12.3715 4.65143 11.1857C5.21142 10.1819 6.11958 9.03042 7.20764 7.94386C9.08521 6.06591 11.0115 4.85254 12.1151 4.85254C12.5155 4.85254 12.7554 5.00819 12.8857 5.13881L14.1428 6.54982C14.2179 6.63464 14.2563 6.74575 14.249 6.85899C14.2416 6.97223 14.1894 7.07741 14.1036 7.15205L11.9823 8.99013C11.8528 9.10252 11.6673 9.12584 11.5146 9.04908L10.0909 8.33743L7.55365 10.874L8.2655 12.2969C8.34186 12.45 8.31943 12.6341 8.20726 12.7638L6.37887 14.8839C6.30466 14.9696 6.19982 15.0222 6.08679 15.0303C6.07687 15.0307 6.06694 15.0311 6.05745 15.0311ZM12.1151 5.70075C11.3873 5.70075 9.67368 6.67705 7.80732 8.54354C6.77319 9.57667 5.91551 10.662 5.39219 11.5992C4.82314 12.6184 4.89821 13.0179 4.94998 13.0692L6.0156 14.0056L7.38021 12.4237L6.658 10.98C6.57646 10.8168 6.60882 10.6195 6.73782 10.4902L9.70733 7.52187C9.83719 7.39209 10.0335 7.36071 10.197 7.44214L11.6406 8.16354L13.223 6.79198L12.295 5.74783C12.2549 5.71602 12.2023 5.70075 12.1151 5.70075Z" fill="#F2F5F7"/>
</svg>
