<svg width="77" height="77" viewBox="0 0 77 77" fill="none" xmlns="http://www.w3.org/2000/svg">
<path d="M75.7148 11.9989H61.62V1.74815C61.62 1.04052 61.0463 0.466797 60.3386 0.466797H16.7728C16.0652 0.466797 15.4914 1.04052 15.4914 1.74815V19.687H1.39658C0.688958 19.687 0.115234 20.2608 0.115234 20.9684V73.5037C0.115234 74.2113 0.688958 74.7851 1.39658 74.7851C2.10421 74.7851 2.67793 74.2113 2.67793 73.5037V22.2497H15.4914V74.7851C15.4914 75.4927 16.0652 76.0664 16.7728 76.0664H60.3386C61.0463 76.0664 61.62 75.4927 61.62 74.7851V14.5616H74.4335V73.5037C74.4335 74.2113 75.0072 74.7851 75.7148 74.7851C76.4225 74.7851 76.9962 74.2113 76.9962 73.5037V13.2803C76.9962 12.5727 76.4225 11.9989 75.7148 11.9989ZM37.2744 73.5037H32.149V61.9716H37.2744V73.5037ZM44.9625 73.5037H39.8371V61.9716H44.9625V73.5037ZM59.0573 73.5037H47.5252V60.6902C47.5252 59.9826 46.9514 59.4089 46.2438 59.4089H30.8676C30.16 59.4089 29.5863 59.9826 29.5863 60.6902V73.5037H18.0541V3.0295H59.0573V73.5037Z" fill="white"/>
<path d="M29.5866 5.59235H21.8985C21.1909 5.59235 20.6172 6.16607 20.6172 6.8737V14.5618C20.6172 15.2694 21.1909 15.8431 21.8985 15.8431H29.5866C30.2943 15.8431 30.868 15.2694 30.868 14.5618V6.8737C30.868 6.16607 30.2943 5.59235 29.5866 5.59235ZM28.3053 13.2804H23.1799V8.15504H28.3053V13.2804Z" fill="#53A3EB"/>
<path d="M42.4001 5.59235H34.712C34.0044 5.59235 33.4307 6.16607 33.4307 6.8737V14.5618C33.4307 15.2694 34.0044 15.8431 34.712 15.8431H42.4001C43.1077 15.8431 43.6815 15.2694 43.6815 14.5618V6.8737C43.6815 6.16607 43.1077 5.59235 42.4001 5.59235ZM41.1188 13.2804H35.9934V8.15504H41.1188V13.2804Z" fill="#53A3EB"/>
<path d="M55.2136 5.59235H47.5255C46.8179 5.59235 46.2441 6.16607 46.2441 6.8737V14.5618C46.2441 15.2694 46.8179 15.8431 47.5255 15.8431H55.2136C55.9212 15.8431 56.4949 15.2694 56.4949 14.5618V6.8737C56.4949 6.16607 55.9212 5.59235 55.2136 5.59235ZM53.9322 13.2804H48.8068V8.15504H53.9322V13.2804Z" fill="#53A3EB"/>
<path d="M29.5866 18.4058H21.8985C21.1909 18.4058 20.6172 18.9795 20.6172 19.6872V27.3753C20.6172 28.0829 21.1909 28.6566 21.8985 28.6566H29.5866C30.2943 28.6566 30.868 28.0829 30.868 27.3753V19.6872C30.868 18.9795 30.2943 18.4058 29.5866 18.4058ZM28.3053 26.0939H23.1799V20.9685H28.3053V26.0939Z" fill="#53A3EB"/>
<path d="M42.4001 18.4058H34.712C34.0044 18.4058 33.4307 18.9795 33.4307 19.6872V27.3753C33.4307 28.0829 34.0044 28.6566 34.712 28.6566H42.4001C43.1077 28.6566 43.6815 28.0829 43.6815 27.3753V19.6872C43.6815 18.9795 43.1077 18.4058 42.4001 18.4058ZM41.1188 26.0939H35.9934V20.9685H41.1188V26.0939Z" fill="#53A3EB"/>
<path d="M55.2136 18.4058H47.5255C46.8179 18.4058 46.2441 18.9795 46.2441 19.6872V27.3753C46.2441 28.0829 46.8179 28.6566 47.5255 28.6566H55.2136C55.9212 28.6566 56.4949 28.0829 56.4949 27.3753V19.6872C56.4949 18.9795 55.9212 18.4058 55.2136 18.4058ZM53.9322 26.0939H48.8068V20.9685H53.9322V26.0939Z" fill="#53A3EB"/>
<path d="M29.5866 31.2193H21.8985C21.1909 31.2193 20.6172 31.793 20.6172 32.5006V40.1887C20.6172 40.8964 21.1909 41.4701 21.8985 41.4701H29.5866C30.2943 41.4701 30.868 40.8964 30.868 40.1887V32.5006C30.868 31.793 30.2943 31.2193 29.5866 31.2193ZM28.3053 38.9074H23.1799V33.782H28.3053V38.9074Z" fill="#53A3EB"/>
<path d="M42.4001 31.2193H34.712C34.0044 31.2193 33.4307 31.793 33.4307 32.5006V40.1887C33.4307 40.8964 34.0044 41.4701 34.712 41.4701H42.4001C43.1077 41.4701 43.6815 40.8964 43.6815 40.1887V32.5006C43.6815 31.793 43.1077 31.2193 42.4001 31.2193ZM41.1188 38.9074H35.9934V33.782H41.1188V38.9074Z" fill="#53A3EB"/>
<path d="M55.2136 31.2193H47.5255C46.8179 31.2193 46.2441 31.793 46.2441 32.5006V40.1887C46.2441 40.8964 46.8179 41.4701 47.5255 41.4701H55.2136C55.9212 41.4701 56.4949 40.8964 56.4949 40.1887V32.5006C56.4949 31.793 55.9212 31.2193 55.2136 31.2193ZM53.9322 38.9074H48.8068V33.782H53.9322V38.9074Z" fill="#53A3EB"/>
<path d="M29.5866 44.0328H21.8985C21.1909 44.0328 20.6172 44.6066 20.6172 45.3142V53.0023C20.6172 53.7099 21.1909 54.2836 21.8985 54.2836H29.5866C30.2943 54.2836 30.868 53.7099 30.868 53.0023V45.3142C30.868 44.6066 30.2943 44.0328 29.5866 44.0328ZM28.3053 51.7209H23.1799V46.5955H28.3053V51.7209Z" fill="#53A3EB"/>
<path d="M42.4001 44.0328H34.712C34.0044 44.0328 33.4307 44.6066 33.4307 45.3142V53.0023C33.4307 53.7099 34.0044 54.2836 34.712 54.2836H42.4001C43.1077 54.2836 43.6815 53.7099 43.6815 53.0023V45.3142C43.6815 44.6066 43.1077 44.0328 42.4001 44.0328ZM41.1188 51.7209H35.9934V46.5955H41.1188V51.7209Z" fill="#53A3EB"/>
<path d="M55.2136 44.0328H47.5255C46.8179 44.0328 46.2441 44.6066 46.2441 45.3142V53.0023C46.2441 53.7099 46.8179 54.2836 47.5255 54.2836H55.2136C55.9212 54.2836 56.4949 53.7099 56.4949 53.0023V45.3142C56.4949 44.6066 55.9212 44.0328 55.2136 44.0328ZM53.9322 51.7209H48.8068V46.5955H53.9322V51.7209Z" fill="#53A3EB"/>
<path d="M7.80293 24.8126H6.52158C5.81396 24.8126 5.24023 25.3863 5.24023 26.0939V27.3753C5.24023 28.0829 5.81396 28.6566 6.52158 28.6566H7.80293C8.51056 28.6566 9.08428 28.0829 9.08428 27.3753V26.0939C9.08428 25.3863 8.51056 24.8126 7.80293 24.8126Z" fill="white"/>
<path d="M12.9289 24.8126H11.6476C10.9399 24.8126 10.3662 25.3863 10.3662 26.0939V27.3753C10.3662 28.0829 10.9399 28.6566 11.6476 28.6566H12.9289C13.6365 28.6566 14.2103 28.0829 14.2103 27.3753V26.0939C14.2103 25.3863 13.6365 24.8126 12.9289 24.8126Z" fill="white"/>
<path d="M7.80293 29.938H6.52158C5.81396 29.938 5.24023 30.5117 5.24023 31.2193V32.5007C5.24023 33.2083 5.81396 33.782 6.52158 33.782H7.80293C8.51056 33.782 9.08428 33.2083 9.08428 32.5007V31.2193C9.08428 30.5117 8.51056 29.938 7.80293 29.938Z" fill="white"/>
<path d="M12.9289 29.938H11.6476C10.9399 29.938 10.3662 30.5117 10.3662 31.2193V32.5007C10.3662 33.2083 10.9399 33.782 11.6476 33.782H12.9289C13.6365 33.782 14.2103 33.2083 14.2103 32.5007V31.2193C14.2103 30.5117 13.6365 29.938 12.9289 29.938Z" fill="white"/>
<path d="M7.80293 35.0634H6.52158C5.81396 35.0634 5.24023 35.6371 5.24023 36.3447V37.6261C5.24023 38.3337 5.81396 38.9074 6.52158 38.9074H7.80293C8.51056 38.9074 9.08428 38.3337 9.08428 37.6261V36.3447C9.08428 35.6371 8.51056 35.0634 7.80293 35.0634Z" fill="white"/>
<path d="M12.9289 35.0634H11.6476C10.9399 35.0634 10.3662 35.6371 10.3662 36.3447V37.6261C10.3662 38.3337 10.9399 38.9074 11.6476 38.9074H12.9289C13.6365 38.9074 14.2103 38.3337 14.2103 37.6261V36.3447C14.2103 35.6371 13.6365 35.0634 12.9289 35.0634Z" fill="white"/>
<path d="M7.80293 40.1888H6.52158C5.81396 40.1888 5.24023 40.7625 5.24023 41.4701V42.7515C5.24023 43.4591 5.81396 44.0328 6.52158 44.0328H7.80293C8.51056 44.0328 9.08428 43.4591 9.08428 42.7515V41.4701C9.08428 40.7625 8.51056 40.1888 7.80293 40.1888Z" fill="white"/>
<path d="M12.9289 40.1888H11.6476C10.9399 40.1888 10.3662 40.7625 10.3662 41.4701V42.7515C10.3662 43.4591 10.9399 44.0328 11.6476 44.0328H12.9289C13.6365 44.0328 14.2103 43.4591 14.2103 42.7515V41.4701C14.2103 40.7625 13.6365 40.1888 12.9289 40.1888Z" fill="white"/>
<path d="M7.80293 45.3141H6.52158C5.81396 45.3141 5.24023 45.8879 5.24023 46.5955V47.8768C5.24023 48.5845 5.81396 49.1582 6.52158 49.1582H7.80293C8.51056 49.1582 9.08428 48.5845 9.08428 47.8768V46.5955C9.08428 45.8879 8.51056 45.3141 7.80293 45.3141Z" fill="white"/>
<path d="M12.9289 45.3141H11.6476C10.9399 45.3141 10.3662 45.8879 10.3662 46.5955V47.8768C10.3662 48.5845 10.9399 49.1582 11.6476 49.1582H12.9289C13.6365 49.1582 14.2103 48.5845 14.2103 47.8768V46.5955C14.2103 45.8879 13.6365 45.3141 12.9289 45.3141Z" fill="white"/>
<path d="M7.80293 50.4396H6.52158C5.81396 50.4396 5.24023 51.0133 5.24023 51.7209V53.0023C5.24023 53.7099 5.81396 54.2836 6.52158 54.2836H7.80293C8.51056 54.2836 9.08428 53.7099 9.08428 53.0023V51.7209C9.08428 51.0133 8.51056 50.4396 7.80293 50.4396Z" fill="white"/>
<path d="M12.9289 50.4396H11.6476C10.9399 50.4396 10.3662 51.0133 10.3662 51.7209V53.0023C10.3662 53.7099 10.9399 54.2836 11.6476 54.2836H12.9289C13.6365 54.2836 14.2103 53.7099 14.2103 53.0023V51.7209C14.2103 51.0133 13.6365 50.4396 12.9289 50.4396Z" fill="white"/>
<path d="M7.80293 55.5649H6.52158C5.81396 55.5649 5.24023 56.1387 5.24023 56.8463V58.1276C5.24023 58.8353 5.81396 59.409 6.52158 59.409H7.80293C8.51056 59.409 9.08428 58.8353 9.08428 58.1276V56.8463C9.08428 56.1387 8.51056 55.5649 7.80293 55.5649Z" fill="white"/>
<path d="M12.9289 55.5649H11.6476C10.9399 55.5649 10.3662 56.1387 10.3662 56.8463V58.1276C10.3662 58.8353 10.9399 59.409 11.6476 59.409H12.9289C13.6365 59.409 14.2103 58.8353 14.2103 58.1276V56.8463C14.2103 56.1387 13.6365 55.5649 12.9289 55.5649Z" fill="white"/>
<path d="M7.80293 60.6904H6.52158C5.81396 60.6904 5.24023 61.2641 5.24023 61.9717V63.2531C5.24023 63.9607 5.81396 64.5344 6.52158 64.5344H7.80293C8.51056 64.5344 9.08428 63.9607 9.08428 63.2531V61.9717C9.08428 61.2641 8.51056 60.6904 7.80293 60.6904Z" fill="white"/>
<path d="M12.9289 60.6904H11.6476C10.9399 60.6904 10.3662 61.2641 10.3662 61.9717V63.2531C10.3662 63.9607 10.9399 64.5344 11.6476 64.5344H12.9289C13.6365 64.5344 14.2103 63.9607 14.2103 63.2531V61.9717C14.2103 61.2641 13.6365 60.6904 12.9289 60.6904Z" fill="white"/>
<path d="M7.80293 65.8157H6.52158C5.81396 65.8157 5.24023 66.3895 5.24023 67.0971V68.3784C5.24023 69.0861 5.81396 69.6598 6.52158 69.6598H7.80293C8.51056 69.6598 9.08428 69.0861 9.08428 68.3784V67.0971C9.08428 66.3895 8.51056 65.8157 7.80293 65.8157Z" fill="white"/>
<path d="M12.9289 65.8157H11.6476C10.9399 65.8157 10.3662 66.3895 10.3662 67.0971V68.3784C10.3662 69.0861 10.9399 69.6598 11.6476 69.6598H12.9289C13.6365 69.6598 14.2103 69.0861 14.2103 68.3784V67.0971C14.2103 66.3895 13.6365 65.8157 12.9289 65.8157Z" fill="white"/>
<path d="M70.5894 17.1245H65.464C64.7563 17.1245 64.1826 17.6982 64.1826 18.4058V23.5312C64.1826 24.2388 64.7563 24.8125 65.464 24.8125H70.5894C71.297 24.8125 71.8707 24.2388 71.8707 23.5312V18.4058C71.8707 17.6982 71.297 17.1245 70.5894 17.1245ZM69.308 22.2498H66.7453V19.6871H69.308V22.2498Z" fill="white"/>
<path d="M70.5894 27.3752H65.464C64.7563 27.3752 64.1826 27.949 64.1826 28.6566V33.782C64.1826 34.4896 64.7563 35.0633 65.464 35.0633H70.5894C71.297 35.0633 71.8707 34.4896 71.8707 33.782V28.6566C71.8707 27.949 71.297 27.3752 70.5894 27.3752ZM69.308 32.5006H66.7453V29.9379H69.308V32.5006Z" fill="white"/>
<path d="M70.5894 37.6261H65.464C64.7563 37.6261 64.1826 38.1998 64.1826 38.9074V44.0328C64.1826 44.7405 64.7563 45.3142 65.464 45.3142H70.5894C71.297 45.3142 71.8707 44.7405 71.8707 44.0328V38.9074C71.8707 38.1998 71.297 37.6261 70.5894 37.6261ZM69.308 42.7515H66.7453V40.1888H69.308V42.7515Z" fill="white"/>
<path d="M70.5894 47.8768H65.464C64.7563 47.8768 64.1826 48.4506 64.1826 49.1582V54.2836C64.1826 54.9912 64.7563 55.5649 65.464 55.5649H70.5894C71.297 55.5649 71.8707 54.9912 71.8707 54.2836V49.1582C71.8707 48.4506 71.297 47.8768 70.5894 47.8768ZM69.308 53.0022H66.7453V50.4395H69.308V53.0022Z" fill="white"/>
<path d="M70.5894 58.1277H65.464C64.7563 58.1277 64.1826 58.7014 64.1826 59.409V64.5344C64.1826 65.2421 64.7563 65.8158 65.464 65.8158H70.5894C71.297 65.8158 71.8707 65.2421 71.8707 64.5344V59.409C71.8707 58.7014 71.297 58.1277 70.5894 58.1277ZM69.308 63.2531H66.7453V60.6904H69.308V63.2531Z" fill="white"/>
</svg>
