<svg width="76" height="80" viewBox="0 0 76 80" fill="none" xmlns="http://www.w3.org/2000/svg">
<path d="M48.5834 49.4887H53.1681C54.5961 49.4887 55.7581 48.3273 55.7581 46.8987V44.3433C55.7581 44.1924 55.8648 44.0618 56.0229 44.0182C57.6126 43.5852 59.1456 42.9481 60.5789 42.1256C60.709 42.051 60.8623 42.0659 60.9595 42.1631L62.7848 43.9884C63.2739 44.4775 63.9241 44.7466 64.616 44.7466C65.3073 44.7466 65.9581 44.4775 66.4472 43.9884L69.6892 40.7465C70.1783 40.2573 70.4479 39.6066 70.4479 38.9152C70.4479 38.2233 70.1783 37.5725 69.6892 37.084L67.8645 35.2587C67.7667 35.1615 67.7518 35.0082 67.8269 34.8782C68.6489 33.4448 69.286 31.9118 69.719 30.3221C69.7626 30.1641 69.8932 30.0573 70.0441 30.0573H72.5995C74.0275 30.0573 75.1895 28.8953 75.1895 27.4673V22.8827C75.1895 21.4547 74.0275 20.2927 72.5995 20.2927H70.0441C69.8932 20.2927 69.7626 20.1865 69.719 20.0279C69.286 18.4388 68.6489 16.9058 67.8263 15.4718C67.7518 15.3418 67.7667 15.1885 67.8639 15.0913L69.6892 13.266C70.1783 12.7775 70.4479 12.1267 70.4479 11.4348C70.4479 10.7434 70.1783 10.0927 69.6892 9.60354L66.4472 6.3616C65.9581 5.87247 65.3079 5.60345 64.616 5.60345C63.9241 5.60345 63.2733 5.87247 62.7842 6.36219L60.9595 8.18687C60.8623 8.2841 60.7096 8.29901 60.5789 8.22445C59.1456 7.40188 57.6132 6.76542 56.0235 6.33177C55.8643 6.28823 55.7581 6.1576 55.7581 6.00668V3.4513C55.7581 2.0233 54.5961 0.861328 53.1681 0.861328H48.5834C47.1554 0.861328 45.9935 2.0233 45.9935 3.4513V6.00668C45.9935 6.1576 45.8873 6.28823 45.7286 6.33117C44.1396 6.76483 42.6066 7.40188 41.1732 8.22445C41.0426 8.29901 40.8899 8.2841 40.792 8.18687L38.9674 6.3616C37.9551 5.34994 36.3166 5.34935 35.3043 6.36219L34.9613 6.70518C33.8906 7.77529 35.5089 9.39656 36.5808 8.32466C36.792 8.14213 37.0628 7.69655 37.3473 7.98167L39.1726 9.80635C39.9981 10.6319 41.2895 10.7983 42.3131 10.2108C43.5777 9.48543 44.9299 8.92354 46.3311 8.54118C47.4811 8.22802 48.2846 7.18535 48.2846 6.00609V3.4513C48.2846 3.28607 48.4188 3.15186 48.584 3.15186H53.1687C53.3333 3.15186 53.4675 3.28607 53.4675 3.4513V6.00668C53.4675 7.18595 54.271 8.22802 55.4211 8.54178C56.8228 8.92413 58.1751 9.48543 59.4396 10.2108C60.4626 10.7983 61.754 10.6319 62.5796 9.80635L64.4043 7.98167C64.477 7.9089 64.5593 7.89399 64.616 7.89399C64.6727 7.89399 64.755 7.9089 64.8272 7.98167L68.0697 11.2236C68.1419 11.2958 68.1574 11.3787 68.1574 11.4348C68.1574 11.4914 68.1419 11.5744 68.0697 11.6465L66.2444 13.4718C65.4189 14.2973 65.2525 15.5882 65.84 16.6117C66.5653 17.8769 67.1272 19.2286 67.5096 20.6303C67.8228 21.7804 68.8654 22.5832 70.0441 22.5832H72.5995C72.7647 22.5832 72.8989 22.718 72.8989 22.8827V27.4673C72.8989 27.6326 72.7647 27.7668 72.5995 27.7668H70.0441C68.8654 27.7668 67.8228 28.5697 67.509 29.7197C67.1272 31.122 66.5653 32.4737 65.84 33.7383C65.2525 34.7619 65.4189 36.0527 66.2444 36.8782L68.0691 38.7035C68.1419 38.7757 68.1568 38.8586 68.1568 38.9152C68.1568 38.9713 68.1413 39.0542 68.0691 39.127L64.8272 42.3683C64.7103 42.4853 64.5206 42.4858 64.4037 42.3683L62.579 40.5437C61.7534 39.7181 60.462 39.5517 59.4384 40.1392C58.1739 40.8646 56.8222 41.4265 55.4205 41.8088C54.2704 42.122 53.4669 43.1647 53.4669 44.3439V46.8987C53.4669 47.0639 53.3327 47.1981 53.1681 47.1981H48.5834C48.4182 47.1981 48.284 47.0639 48.284 46.8987V44.3439C48.284 43.1647 47.4805 42.122 46.3305 41.8088C44.8673 41.4104 44.2672 43.6204 45.728 44.0182C45.8867 44.0618 45.9935 44.1924 45.9935 44.3439V46.8987C45.9935 48.3267 47.1554 49.4887 48.5834 49.4887Z" fill="#53A3EB"/>
<path d="M61.6699 25.175C61.6699 17.6019 54.0551 12.4106 47.0379 15.0841C45.6236 15.6239 46.4367 17.7648 47.8539 17.2249C53.3918 15.1139 59.38 19.225 59.38 25.175C59.38 30.0149 55.3035 33.953 50.3682 33.6637C48.859 33.5724 48.7177 35.8612 50.2333 35.9507C56.4566 36.3169 61.6699 31.3541 61.6699 25.175Z" fill="#53A3EB"/>
<path d="M11.8116 51.719L23.4158 49.4625V46.5951C20.1572 44.372 18.3927 41.2237 18.0086 37.6877C16.317 37.5535 14.982 36.1344 14.982 34.4094V32.0556C12.2244 30.8567 12.5966 26.8321 15.5141 26.1533V25.2448C15.5141 17.0771 22.1357 10.4554 30.3029 10.4554H31.543C39.7108 10.4554 46.3319 17.0771 46.3319 25.2443V26.1533C49.2482 26.8315 49.6228 30.8567 46.864 32.0556V34.4094C46.864 36.1344 45.529 37.5535 43.8374 37.6877C43.5021 40.7728 42.0562 43.5966 39.7753 45.5602C39.3386 45.9366 38.8901 46.2814 38.4302 46.5951V49.4625L50.0344 51.719C56.1568 52.9096 60.9287 56.3609 60.9287 62.7291V74.378C60.9287 76.9555 58.8392 79.045 56.2617 79.045H5.58424C3.00679 79.045 0.917274 76.9555 0.917274 74.378V62.7291C0.917274 56.3818 5.66 52.915 11.8116 51.719ZM21.3442 52.1986C22.1757 53.4077 23.4468 55.2533 24.82 57.2408C25.3795 58.0514 26.3834 58.1546 26.7759 57.9196L28.585 56.8346C26.8206 55.7925 24.3792 54.003 23.6383 51.7524L21.3442 52.1986ZM30.9233 55.499C32.6627 54.6234 36.1301 52.4599 36.1396 50.4151C36.1396 50.4121 36.1396 50.4091 36.1396 50.4061V47.8597C32.8064 49.2973 29.0437 49.299 25.7064 47.8597V50.4061C25.7064 52.4545 29.1821 54.6228 30.9233 55.499ZM44.0414 25.2443C44.0414 20.5463 41.4359 16.4454 37.5939 14.3111V15.7469C37.5939 17.2608 35.3033 17.2632 35.3033 15.7469V13.3239C34.2756 12.9988 33.1912 12.8038 32.0686 12.7573V18.4204C32.0686 19.9343 29.778 19.9367 29.778 18.4204V12.7573C28.6554 12.8038 27.5704 12.9988 26.5426 13.3239V15.7469C26.5426 17.2608 24.2521 17.2632 24.2521 15.7469V14.3111C20.4101 16.4454 17.8046 20.5463 17.8046 25.2443V26.0722H44.0414V25.2443ZM45.6245 28.3627H16.2215C15.124 28.3627 15.1252 30.0216 16.2215 30.0216H45.6245C46.7226 30.0216 46.7214 28.3627 45.6245 28.3627ZM41.6196 36.5281C41.6327 35.9054 42.1415 35.4073 42.7649 35.4073C42.9558 35.3602 44.574 35.705 44.574 34.4094V32.3127H17.2725V34.4094C17.2725 35.7026 18.9338 35.3709 19.0817 35.4073C19.7044 35.4073 20.2132 35.9054 20.227 36.5281C20.2884 39.3913 21.5053 42.0505 23.5649 43.8244C27.939 47.5907 33.907 47.5913 38.281 43.8244C40.3413 42.0505 41.5582 39.3913 41.6196 36.5281ZM38.2083 51.7524C37.4668 54.003 35.026 55.7925 33.261 56.8346C35.0743 57.8056 34.946 58.0961 35.7698 57.9989C36.2822 57.9375 36.7421 57.6523 37.0356 57.2276C38.4051 55.2449 39.6721 53.4047 40.5024 52.1986L38.2083 51.7524ZM51.4224 76.7545H56.2623C57.5746 76.7545 58.6388 75.6903 58.6388 74.378V62.7291C58.6388 59.2969 57.0795 56.924 53.6592 55.2849C53.5209 55.8945 51.4224 61.5904 51.4224 69.5494V76.7545ZM32.0686 76.7545H49.1319V69.5494C49.1319 60.9259 51.3091 55.3731 51.5232 54.4331C50.1859 53.9887 51.179 54.3311 42.954 52.6752C40.5901 56.1104 36.1784 62.5197 33.5777 66.2162C32.5899 67.6198 32.0686 69.2685 32.0686 70.9846V76.7545ZM30.9233 66.1947C31.1512 65.748 31.4118 65.3149 31.7041 64.8986C32.5833 63.6495 33.7244 62.0103 34.915 60.2918C34.5613 60.2137 34.2159 60.0777 33.892 59.8838L30.9233 58.1033L27.9539 59.8838C27.6306 60.0777 27.2847 60.2137 26.931 60.2918C28.1216 62.0091 29.2627 63.6483 30.1419 64.8986C30.4348 65.3149 30.6954 65.748 30.9233 66.1947ZM3.20781 74.378C3.20781 75.6903 4.27136 76.7545 5.58424 76.7545H10.4242V72.4335C10.4242 70.9196 12.7147 70.9172 12.7147 72.4335V76.7545H29.778V70.9846C29.778 69.2685 29.2561 67.6198 28.2689 66.2168C26.7896 64.1142 20.6988 55.3248 18.892 52.6752C10.6711 54.3305 11.6625 53.9881 10.3234 54.4331C10.4898 55.1375 12.4171 60.3753 12.6831 67.8053C12.738 69.3227 10.4486 69.3973 10.3944 67.8876C10.1367 60.6974 8.37285 56.071 8.18734 55.2849C4.76704 56.924 3.20781 59.2969 3.20781 62.7285V74.378Z" fill="white"/>
</svg>
