<svg width="77" height="77" viewBox="0 0 77 77" fill="none" xmlns="http://www.w3.org/2000/svg">
<path d="M75.0954 4.45478H66.2754V1.9348C66.2754 1.23897 65.7113 0.674805 65.0154 0.674805H52.4155C51.7197 0.674805 51.1555 1.23897 51.1555 1.9348V4.45478H2.01585C1.32003 4.45478 0.755859 5.01895 0.755859 5.71477V10.7547C0.755859 11.4512 1.32003 12.0147 2.01585 12.0147H5.79583V35.9546C5.79583 36.651 6.35999 37.2146 7.05582 37.2146C7.75164 37.2146 8.31581 37.7787 8.31581 38.4746C8.31581 39.171 7.75164 39.7346 7.05582 39.7346C6.35999 39.7346 5.79583 39.171 5.79583 38.4746H3.27584C3.27953 39.3968 3.62222 40.2858 4.23991 40.9712L1.0081 45.279L1.0241 45.2913C0.855527 45.503 0.761396 45.7644 0.755859 46.0345V51.0745C0.755859 51.4092 0.888749 51.7291 1.125 51.9653L3.64498 54.4853C3.88123 54.7216 4.20176 54.8545 4.53583 54.8545H9.5758C9.90987 54.8545 10.2304 54.7216 10.4667 54.4853L12.9866 51.9653C13.2229 51.7291 13.3558 51.4092 13.3558 51.0745V46.0345C13.3502 45.7644 13.2561 45.503 13.0875 45.2913L13.1035 45.279L9.87173 40.9712C10.7134 40.036 11.0308 38.7416 10.7177 37.5234C10.4051 36.3053 9.5032 35.3246 8.31581 34.9105V12.0147H51.1555V13.2747C51.1555 13.9712 51.7197 14.5347 52.4155 14.5347H54.9355V73.7543H49.8955V23.3547H47.3756V28.3946H39.8156V25.8746H37.2956V28.3946H29.7357V27.1346H27.2157V28.3946H19.6557V24.6147H36.0356V22.0947H19.6557V17.0547H17.1358V73.7543H15.1375L9.20666 67.8241C8.71448 67.3319 7.91714 67.3319 7.42496 67.8241L1.49414 73.7543H0.755859V76.2743H76.3554V73.7543H75.3728C76.2594 72.7866 76.5744 71.4245 76.2028 70.1651C75.8318 68.9063 74.8284 67.933 73.5579 67.6008C74.1984 66.0215 73.7037 64.2096 72.349 63.1754C70.9949 62.1412 69.116 62.1412 67.7618 63.1754C66.4071 64.2096 65.9124 66.0215 66.5529 67.6008C65.2824 67.933 64.279 68.9063 63.908 70.1651C63.5364 71.4245 63.8514 72.7866 64.738 73.7543H62.4955V14.5347H65.0154C65.7113 14.5347 66.2754 13.9712 66.2754 13.2747V12.0147H75.0954C75.7912 12.0147 76.3554 11.4512 76.3554 10.7547V5.71477C76.3554 5.01895 75.7912 4.45478 75.0954 4.45478ZM7.68581 42.2545L9.5758 44.7745H4.53583L6.42582 42.2545H7.68581ZM10.8358 50.5534L9.05409 52.3345H5.05755L3.27584 50.5534V47.2945H10.8358V50.5534ZM69.6777 6.97476L66.2754 9.24312V6.97476H69.6777ZM53.6755 3.19479H58.7155V8.23476H53.6755V3.19479ZM19.6557 7.22701L23.058 9.49475H16.2535L19.6557 7.22701ZM12.0958 9.24312L8.69356 6.97476H15.498L12.0958 9.24312ZM23.8135 6.97476H30.6179L27.2157 9.24312L23.8135 6.97476ZM34.7756 7.22701L38.1779 9.49475H31.3734L34.7756 7.22701ZM38.9334 6.97476H45.7378L42.3356 9.24312L38.9334 6.97476ZM3.27584 6.97476H4.15808L7.93806 9.49475H3.27584V6.97476ZM46.4933 9.49475L50.2733 6.97476H51.1555V9.49475H46.4933ZM59.9755 69.5966L57.7077 66.1944L59.9755 62.7928V69.5966ZM59.9755 39.3568L57.7077 35.9546L59.9755 32.553V39.3568ZM57.4555 40.1129L59.7232 43.5145L57.4555 46.9168V40.1129ZM57.4555 31.7969V24.993L59.7232 28.3946L57.4555 31.7969ZM57.4555 55.2328L59.7232 58.6344L57.4555 62.0367V55.2328ZM59.9755 54.4693L57.7077 51.0745L59.9755 47.6729V54.4693ZM57.7077 20.8347L59.9755 17.4331V24.2369L57.7077 20.8347ZM57.4555 16.6769V14.5347H58.8816L57.4555 16.6769ZM47.3756 30.9146V43.5145H39.8156V30.9146H47.3756ZM37.2956 30.9146V41.7507L34.3979 38.8868C34.1629 38.6548 33.846 38.5238 33.5156 38.5225H29.7357V30.9146H37.2956ZM27.2157 30.9146V33.015H19.6557V30.9146H27.2157ZM8.31581 70.4961L11.5741 73.7543H5.05755L8.31581 70.4961ZM19.6557 73.7543V35.535H27.2157V39.7875C27.2157 40.4839 27.7799 41.0475 28.4757 41.0475H32.9976L37.6734 45.6709C37.9084 45.9029 38.2252 46.0339 38.5556 46.0345H47.3756V73.7543H19.6557ZM57.4555 70.3527L59.7232 73.7543H57.4555V70.3527ZM72.5754 72.4943C71.8796 72.4943 71.3154 71.9308 71.3154 71.2344C71.3154 70.5385 71.8796 69.9744 72.5754 69.9744C73.2712 69.9744 73.8354 70.5385 73.8354 71.2344C73.8354 71.9308 73.2712 72.4943 72.5754 72.4943ZM70.0554 64.9344C70.7512 64.9344 71.3154 65.4986 71.3154 66.1944C71.3154 66.8908 70.7512 67.4544 70.0554 67.4544C69.3596 67.4544 68.7954 66.8908 68.7954 66.1944C68.7954 65.4986 69.3596 64.9344 70.0554 64.9344ZM67.5354 69.9744C68.2312 69.9744 68.7954 70.5385 68.7954 71.2344C68.7954 71.9308 68.2312 72.4943 67.5354 72.4943C66.8396 72.4943 66.2754 71.9308 66.2754 71.2344C66.2754 70.5385 66.8396 69.9744 67.5354 69.9744ZM63.7554 12.0147H53.6755V10.7547H59.9755C60.6713 10.7547 61.2355 10.1912 61.2355 9.49475V3.19479H63.7554V12.0147ZM70.4332 9.49475L73.8354 7.22701V9.49475H70.4332Z" fill="white"/>
</svg>
