<svg width="84" height="76" viewBox="0 0 84 76" fill="none" xmlns="http://www.w3.org/2000/svg">
<path d="M75.038 36.0769L72.4023 29.1348C72.448 28.2551 72.2363 27.3808 71.7921 26.62L57.7989 2.94018C57.7526 2.8508 57.7223 2.75604 57.6712 2.66531C57.3957 2.22244 57.057 1.82191 56.6652 1.47715C55.3762 0.231872 53.5275 -0.244601 51.797 0.223808C51.2681 0.338726 50.76 0.534288 50.2903 0.803103L23.0204 16.9118L13.542 43.9908H13.1428C10.8626 43.9908 9.01383 45.8396 9.01383 48.1198V55.0015C9.01383 57.2817 10.8626 59.1304 13.1428 59.1304H17.2718V61.8831H7.63751C3.83714 61.8831 0.755859 64.9644 0.755859 68.7647C0.755859 72.5651 3.83714 75.6464 7.63751 75.6464H51.68C55.4804 75.6464 58.5617 72.5651 58.5617 68.7647C58.5617 64.9644 55.4804 61.8831 51.68 61.8831H42.0457V59.1304H51.68V46.7435L49.2923 32.3014C48.965 30.3082 47.2399 28.8465 45.2198 28.8512H35.1641C32.8839 28.8512 31.0351 30.7 31.0351 32.9802V43.9908H27.2925L32.2327 24.2336L51.5907 12.6175L64.1329 31.4318C64.5018 31.9715 64.985 32.4244 65.5482 32.7571L71.0105 40.4122L65.4763 53.0747L57.598 56.3778L58.9192 57.82C61.5966 60.7279 65.3681 62.3824 69.3203 62.3831C76.9869 62.4436 83.2556 56.2864 83.3316 48.6198C83.3228 43.1568 80.0608 38.2241 75.038 36.0769ZM3.50852 68.7647C3.50852 66.4845 5.35729 64.6358 7.63751 64.6358C9.91772 64.6358 11.7665 66.4845 11.7665 68.7647C11.7665 71.045 9.91772 72.8937 7.63751 72.8937C5.35729 72.8937 3.50852 71.045 3.50852 68.7647ZM55.809 68.7647C55.809 71.045 53.9603 72.8937 51.68 72.8937C49.3998 72.8937 47.5511 71.045 47.5511 68.7647C47.5511 66.4845 49.3998 64.6358 51.68 64.6358C53.9603 64.6358 55.809 66.4845 55.809 68.7647ZM46.2103 64.6358C44.328 67.0665 44.328 70.463 46.2103 72.8937H40.6694V70.1411H37.9168V72.8937H31.0351V70.1411H28.2824V72.8937H21.4008V70.1411H18.6481V72.8937H13.1072C14.9896 70.463 14.9896 67.0665 13.1072 64.6358H22.7771V67.3884H25.5298V64.6358H33.7878V67.3884H36.5404V64.6358H46.2103ZM39.2931 61.8831H20.0245V59.1304H39.2931V61.8831ZM33.7878 32.9802C33.7878 32.2201 34.404 31.6038 35.1641 31.6038H45.2198C45.8925 31.6045 46.4664 32.0911 46.5766 32.7544L48.9274 46.8577V56.3778H33.7878V32.9802ZM31.0351 46.7435V56.3778H13.1428C12.3828 56.3778 11.7665 55.7615 11.7665 55.0015V48.1198C11.7665 47.3597 12.3828 46.7435 13.1428 46.7435H31.0351ZM29.8375 22.4581L24.4552 43.9908H16.46L25.2865 18.7693L51.6895 3.16732C51.713 3.15388 51.7378 3.14716 51.7614 3.1344L51.7708 3.1512C51.9818 3.02687 52.2089 2.93413 52.4468 2.87566C53.26 2.69152 54.1128 2.89985 54.7492 3.43883C54.9448 3.60818 55.1128 3.8071 55.2472 4.02753L55.4387 4.35145C56.008 5.57321 55.559 7.02683 54.4011 7.71634L29.8375 22.4581ZM53.9535 11.1995L55.8171 10.0806C56.594 9.60812 57.2364 8.94482 57.6847 8.15383L69.4225 28.0253C69.6731 28.4486 69.7363 28.9567 69.5972 29.4285C69.4581 29.8996 69.1288 30.292 68.6886 30.5111C67.8895 30.9083 66.9198 30.6509 66.4232 29.9096L53.9535 11.1995ZM69.2518 33.21C69.7914 33.0729 70.2927 32.8149 70.7188 32.456L72.4722 37.0722L72.2961 37.4768L69.2518 33.21ZM69.3243 59.6358C66.8445 59.6345 64.4326 58.8253 62.4541 57.3301L67.5576 55.1863L72.8754 43.0271L74.2517 39.8618L74.665 38.9331C78.296 40.8013 80.5796 44.5412 80.583 48.6252C80.5077 54.7716 75.4708 59.697 69.3243 59.6358Z" fill="white"/>
</svg>
