<svg width="68" height="77" viewBox="0 0 68 77" fill="none" xmlns="http://www.w3.org/2000/svg">
<path d="M56.0658 74.8806V6.59519C56.0658 5.89685 55.4996 5.33064 54.8012 5.33064H35.1236L34.4005 0.272461H22.091L21.368 5.33064H1.69033C0.991986 5.33064 0.425781 5.89685 0.425781 6.59519V74.8806C0.425781 75.579 0.991986 76.1452 1.69033 76.1452H54.8012C55.4996 76.1452 56.0658 75.579 56.0658 74.8806ZM23.061 11.3409L24.2842 2.80155H32.2074L33.4281 11.3409L40.8912 13.8299V15.447H15.6003V13.8299L23.061 11.3409ZM48.4785 12.9179V58.4415H38.3621V68.5579H8.01305V12.9179H13.0712V17.9761H43.4203V12.9179H48.4785ZM46.6903 60.9706L40.8912 66.7697V60.9706H46.6903ZM53.5367 73.6161H2.95487V7.85973H21.0074L20.7851 9.43671L17.9244 10.3888H5.48396V71.087H40.1503L51.0076 60.2297V10.3888H38.5671L35.7065 9.43671L35.4842 7.85973H53.5367V73.6161Z" fill="white"/>
<path d="M62.4261 66.3362C62.5675 66.8987 63.0732 67.2932 63.653 67.2932C64.2328 67.2932 64.7385 66.8987 64.8799 66.3362L67.409 56.2198C67.4189 56.1766 67.409 56.1334 67.409 56.0932C67.4263 56.034 67.4386 55.9735 67.4466 55.9123V9.12416C67.4466 8.42582 66.8804 7.85962 66.1821 7.85962H61.1239C60.4256 7.85962 59.8594 8.42582 59.8594 9.12416V55.9123C59.8668 55.9728 59.8785 56.0321 59.8946 56.0908C59.9014 56.1334 59.8872 56.1766 59.8946 56.2174L62.4261 66.3362ZM64.9176 54.6478H62.3885V17.976H64.9176V54.6478ZM63.653 60.8149L62.7435 57.1769H64.5625L63.653 60.8149ZM62.3885 10.3887H64.9176V15.4469H62.3885V10.3887Z" fill="white"/>
<path d="M16.8647 20.5051H11.8065C11.1082 20.5051 10.542 21.0713 10.542 21.7697V26.8279C10.542 27.5262 11.1082 28.0924 11.8065 28.0924H16.8647C17.5631 28.0924 18.1293 27.5262 18.1293 26.8279V21.7697C18.1293 21.0713 17.5631 20.5051 16.8647 20.5051ZM15.6002 25.5633H13.0711V23.0342H15.6002V25.5633Z" fill="#53A3EB"/>
<path d="M16.8647 30.6215H11.8065C11.1082 30.6215 10.542 31.1877 10.542 31.886V36.9442C10.542 37.6425 11.1082 38.2087 11.8065 38.2087H16.8647C17.5631 38.2087 18.1293 37.6425 18.1293 36.9442V31.886C18.1293 31.1877 17.5631 30.6215 16.8647 30.6215ZM15.6002 35.6796H13.0711V33.1505H15.6002V35.6796Z" fill="#53A3EB"/>
<path d="M16.8647 40.7378H11.8065C11.1082 40.7378 10.542 41.304 10.542 42.0023V47.0605C10.542 47.7589 11.1082 48.3251 11.8065 48.3251H16.8647C17.5631 48.3251 18.1293 47.7589 18.1293 47.0605V42.0023C18.1293 41.304 17.5631 40.7378 16.8647 40.7378ZM15.6002 45.796H13.0711V43.2669H15.6002V45.796Z" fill="#53A3EB"/>
<path d="M16.8647 50.8542H11.8065C11.1082 50.8542 10.542 51.4204 10.542 52.1187V57.1769C10.542 57.8753 11.1082 58.4415 11.8065 58.4415H16.8647C17.5631 58.4415 18.1293 57.8753 18.1293 57.1769V52.1187C18.1293 51.4204 17.5631 50.8542 16.8647 50.8542ZM15.6002 55.9124H13.0711V53.3833H15.6002V55.9124Z" fill="#53A3EB"/>
<path d="M20.6582 20.5051H42.1555V23.0342H20.6582V20.5051Z" fill="#53A3EB"/>
<path d="M20.6582 25.5633H28.2455V28.0924H20.6582V25.5633Z" fill="#53A3EB"/>
<path d="M20.6582 30.6215H42.1555V33.1505H20.6582V30.6215Z" fill="#53A3EB"/>
<path d="M20.6582 35.6796H28.2455V38.2087H20.6582V35.6796Z" fill="#53A3EB"/>
<path d="M20.6582 40.7378H42.1555V43.2669H20.6582V40.7378Z" fill="#53A3EB"/>
<path d="M20.6582 45.796H28.2455V48.3251H20.6582V45.796Z" fill="#53A3EB"/>
<path d="M20.6582 50.8542H42.1555V53.3833H20.6582V50.8542Z" fill="#53A3EB"/>
<path d="M20.6582 55.9124H28.2455V58.4414H20.6582V55.9124Z" fill="#53A3EB"/>
</svg>
