<svg width="70" height="77" viewBox="0 0 70 77" fill="none" xmlns="http://www.w3.org/2000/svg">
<path d="M16.1198 29.6152C15.1856 37.2442 18.911 44.6913 25.5761 48.5191C27.5183 49.652 28.7083 51.7352 28.699 53.9836C28.704 55.873 30.235 57.4041 32.1244 57.409H37.9963C39.8857 57.4072 41.4174 55.8755 41.4193 53.9861C41.446 51.693 42.6832 49.585 44.672 48.444C52.4054 43.931 55.9606 34.648 53.2203 26.124C50.4799 17.5999 42.1807 12.128 33.2666 12.9677C24.3525 13.8068 17.221 20.7321 16.1198 29.6177V29.6152ZM35.0834 15.4323C39.1441 15.4205 43.0633 16.9204 46.0788 19.6402C50.0216 23.1663 52.0402 28.3668 51.5079 33.63C50.9756 38.8926 47.9576 43.5838 43.3882 46.2496C40.6211 47.8484 38.905 50.7905 38.8752 53.9861C38.8746 54.4712 38.4814 54.8644 37.9963 54.865H32.1244C31.64 54.86 31.248 54.4681 31.2431 53.9836C31.2511 50.8241 29.5735 47.8999 26.8419 46.3117C20.6483 42.7615 17.4322 35.6374 18.8663 28.6438C20.3004 21.6508 26.0599 16.367 33.1511 15.5403C33.7927 15.4683 34.4374 15.4316 35.0834 15.4323Z" fill="white"/>
<path d="M35.0601 20.5204C41.3799 20.5266 46.5021 25.6482 46.5083 31.9686C46.5083 32.671 47.0779 33.2406 47.7803 33.2406C48.4828 33.2406 49.0524 32.671 49.0524 31.9686C49.0437 24.2445 42.7842 17.985 35.0601 17.9763C34.3576 17.9763 33.7881 18.5459 33.7881 19.2483C33.7881 19.9508 34.3576 20.5204 35.0601 20.5204Z" fill="#53A3EB"/>
<path d="M39.9907 61.2152C40.0428 61.2214 40.0956 61.2245 40.1484 61.2251C40.8192 61.2232 41.3726 60.7009 41.4142 60.0313C41.4552 59.3624 40.9701 58.7761 40.3049 58.691L30.1287 57.419C29.6722 57.3513 29.2145 57.5357 28.9331 57.9016C28.6511 58.2674 28.5903 58.7568 28.7729 59.181C28.9561 59.6046 29.3542 59.8965 29.8132 59.9431L39.9907 61.2152Z" fill="white"/>
<path d="M29.8145 63.7592L39.9907 65.0313C40.0428 65.0375 40.0956 65.0406 40.1484 65.0412C40.8192 65.0393 41.3726 64.517 41.4142 63.8474C41.4552 63.1785 40.9701 62.5922 40.3049 62.5071L30.1287 61.2351C29.6722 61.1674 29.2145 61.3518 28.9331 61.7177C28.6511 62.0835 28.5903 62.5729 28.7729 62.9971C28.9561 63.4207 29.3542 63.7126 29.8132 63.7592H29.8145Z" fill="white"/>
<path d="M29.8145 67.5753L39.9907 68.8474C40.0428 68.8536 40.0956 68.8567 40.1484 68.8573C40.8192 68.8554 41.3726 68.3331 41.4142 67.6635C41.4552 66.9946 40.9701 66.4083 40.3049 66.3232L30.1287 65.0512C29.6722 64.9835 29.2145 65.1679 28.9331 65.5338C28.6511 65.8996 28.5903 66.389 28.7729 66.8132C28.9561 67.2368 29.3542 67.5288 29.8132 67.5753H29.8145Z" fill="white"/>
<path d="M28.6992 73.9453C28.6992 74.5286 29.0961 75.0372 29.6619 75.1795L34.75 76.4515C34.9531 76.5018 35.1655 76.5018 35.3686 76.4515L40.4567 75.1795C41.0226 75.0372 41.4195 74.5286 41.4195 73.9453V70.1293C41.4195 69.4268 40.8499 68.8572 40.1474 68.8572H29.9712C29.2688 68.8572 28.6992 69.4268 28.6992 70.1293V73.9453ZM31.2433 71.4013H38.8754V72.9522L35.0593 73.9062L31.2433 72.9522V71.4013Z" fill="white"/>
<path d="M36.3321 9.07213V1.43999C36.3321 0.737522 35.7626 0.167969 35.0601 0.167969C34.3576 0.167969 33.7881 0.737522 33.7881 1.43999V9.07213C33.7881 9.7746 34.3576 10.3442 35.0601 10.3442C35.7626 10.3442 36.3321 9.7746 36.3321 9.07213Z" fill="white"/>
<path d="M57.5467 10.2274L52.1493 15.6229C51.8183 15.9422 51.686 16.4155 51.8021 16.8602C51.9189 17.3049 52.2661 17.6521 52.7108 17.7688C53.1555 17.885 53.6288 17.7521 53.948 17.4216L59.3448 12.0255C59.6759 11.7062 59.8082 11.2336 59.692 10.7889C59.5753 10.3442 59.2281 9.99696 58.7833 9.88019C58.3386 9.76404 57.866 9.89634 57.5467 10.2274Z" fill="white"/>
<path d="M68.1307 35.7846C68.8332 35.7846 69.4028 35.215 69.4028 34.5126C69.4028 33.8101 68.8332 33.2405 68.1307 33.2405H60.4986C59.7961 33.2405 59.2266 33.8101 59.2266 34.5126C59.2266 35.215 59.7961 35.7846 60.4986 35.7846H68.1307Z" fill="white"/>
<path d="M59.3448 58.7978C59.8417 58.3016 59.8417 57.496 59.3448 56.9997L53.948 51.6036C53.6288 51.2732 53.1555 51.1402 52.7108 51.2564C52.2661 51.3732 51.9189 51.7204 51.8021 52.1651C51.686 52.6098 51.8183 53.0831 52.1493 53.4023L57.5467 58.7978C58.043 59.2947 58.8486 59.2947 59.3448 58.7978Z" fill="white"/>
<path d="M16.1711 51.6036L10.7743 56.9998C10.4433 57.319 10.311 57.7917 10.4271 58.2364C10.5433 58.6811 10.8911 59.0283 11.3358 59.1451C11.7805 59.2612 12.2532 59.1289 12.5724 58.7979L17.9698 53.4023C18.4518 52.903 18.445 52.1098 17.9543 51.6191C17.4636 51.1285 16.6705 51.1216 16.1711 51.6036Z" fill="white"/>
<path d="M1.98687 33.2405C1.2844 33.2405 0.714844 33.8101 0.714844 34.5126C0.714844 35.215 1.2844 35.7846 1.98687 35.7846H9.61901C10.3215 35.7846 10.891 35.215 10.891 34.5126C10.891 33.8101 10.3215 33.2405 9.61901 33.2405H1.98687Z" fill="white"/>
<path d="M12.5724 10.2274C12.2532 9.89634 11.7805 9.76404 11.3358 9.88019C10.8911 9.99696 10.5433 10.3442 10.4271 10.7889C10.311 11.2336 10.4433 11.7062 10.7743 12.0255L16.1711 17.4216C16.6705 17.9036 17.4636 17.8968 17.9543 17.4061C18.445 16.9154 18.4518 16.1223 17.9698 15.6229L12.5724 10.2274Z" fill="white"/>
<path d="M26.7461 38.1746C28.8181 40.2348 29.9796 43.0385 29.9721 45.9608C29.9721 46.6633 30.5417 47.2328 31.2441 47.2328C31.9466 47.2328 32.5161 46.6633 32.5161 45.9608C32.5273 42.6975 31.3516 39.5417 29.2088 37.0809L30.0994 36.1902C31.6416 37.0734 33.5428 37.0467 35.0602 36.1219C36.5794 37.0504 38.4837 37.0771 40.0284 36.1914L40.9191 37.0821C38.7738 39.5417 37.5962 42.6969 37.6042 45.9608C37.6042 46.6633 38.1738 47.2328 38.8763 47.2328C39.5787 47.2328 40.1483 46.6633 40.1483 45.9608C40.1408 43.0379 41.3029 40.2342 43.3755 38.1734L43.5929 37.9548C44.0886 37.4579 44.0886 36.6542 43.5929 36.1573L41.0489 33.6132C40.552 33.117 39.7471 33.117 39.2502 33.6132C38.3409 34.52 36.8701 34.52 35.9608 33.6132C35.4639 33.117 34.659 33.117 34.1621 33.6132C33.2528 34.52 31.782 34.52 30.8727 33.6132C30.3758 33.117 29.5709 33.117 29.074 33.6132L26.5299 36.1573C26.0343 36.6542 26.0343 37.4579 26.5299 37.9548L26.7461 38.1746Z" fill="#53A3EB"/>
</svg>
