<svg width="19" height="19" viewBox="0 0 19 19" fill="none" xmlns="http://www.w3.org/2000/svg">
<path fill-rule="evenodd" clip-rule="evenodd" d="M13.0351 0.102539H5.69453C2.71125 0.102539 0.28418 2.52961 0.28418 5.51289V12.8535C0.28418 15.8368 2.71125 18.2638 5.69453 18.2638H13.0351C16.0184 18.2638 18.4455 15.8368 18.4455 12.8535V5.51289C18.4454 2.52961 16.0184 0.102539 13.0351 0.102539ZM16.6187 12.8536C16.6187 14.8326 15.0143 16.4369 13.0353 16.4369H5.69474C3.71574 16.4369 2.11141 14.8326 2.11141 12.8536V5.51303C2.11141 3.534 3.71574 1.92971 5.69474 1.92971H13.0353C15.0143 1.92971 16.6187 3.534 16.6187 5.51303V12.8536ZM4.66763 9.18363C4.66763 6.59365 6.77477 4.48651 9.36479 4.48651C11.9548 4.48651 14.0619 6.59361 14.0619 9.18363C14.0619 11.7736 11.9548 13.8808 9.36479 13.8808C6.77477 13.8808 4.66763 11.7736 4.66763 9.18363ZM9.36467 12.0529C7.77953 12.0529 6.49454 10.7679 6.49454 9.18278C6.49454 7.59763 7.77957 6.31264 9.36467 6.31264C10.9498 6.31264 12.2348 7.59763 12.2348 9.18278C12.2348 10.7679 10.9498 12.0529 9.36467 12.0529ZM15.1968 4.51863C15.1968 5.14025 14.6929 5.64417 14.0712 5.64417C13.4496 5.64417 12.9457 5.14025 12.9457 4.51863C12.9457 3.89702 13.4496 3.3931 14.0712 3.3931C14.6929 3.3931 15.1968 3.89702 15.1968 4.51863Z" fill="white"/>
</svg>
