<svg width="19" height="20" viewBox="0 0 19 20" fill="none" xmlns="http://www.w3.org/2000/svg">
<circle cx="9.5" cy="9.60254" r="9" stroke="#F2F5F7"/>
<path fill-rule="evenodd" clip-rule="evenodd" d="M9.43081 14.9289C9.35327 14.9972 9.25706 15.0311 9.16085 15.0311C9.06465 15.0311 8.96844 14.9972 8.8909 14.9289C8.74949 14.8046 5.42871 11.8524 5.42871 8.68774C5.42871 6.57314 7.10278 4.85254 9.16085 4.85254C11.2189 4.85254 12.893 6.57314 12.893 8.68774C12.893 11.8524 9.57222 14.8046 9.43081 14.9289ZM9.16085 5.70075C7.56059 5.70075 6.25808 7.04051 6.25808 8.68774C6.25808 10.9788 8.39286 13.2779 9.16044 14.0302C9.92802 13.277 12.0636 10.9745 12.0636 8.68774C12.0636 7.04051 10.7611 5.70075 9.16085 5.70075ZM9.16085 10.3973C8.24606 10.3973 7.50212 9.63647 7.50212 8.70089C7.50212 7.76531 8.24606 7.00446 9.16085 7.00446C10.0756 7.00446 10.8196 7.76531 10.8196 8.70089C10.8196 9.63647 10.0756 10.3973 9.16085 10.3973ZM9.16085 7.85267C8.70387 7.85267 8.33149 8.23352 8.33149 8.70089C8.33149 9.16868 8.70387 9.5491 9.16085 9.5491C9.61783 9.5491 9.99022 9.16868 9.99022 8.70089C9.99022 8.23352 9.61783 7.85267 9.16085 7.85267Z" fill="#F2F5F7"/>
</svg>
