<svg width="328" height="382" viewBox="0 0 328 382" fill="none" xmlns="http://www.w3.org/2000/svg">
<path d="M78.3322 247.27L70.4408 249.379V302.373L78.3322 304.193V309.272H53.4068V304.193L61.2982 302.373V255.799L42.3396 291.831L35.9879 292.215L17.6066 255.703V302.468L25.5943 304.193V309.272H1.72754V304.193L9.61897 302.373V249.379L1.72754 247.749V242.67L21.6486 242.191L40.2223 281.098L59.4697 242.67L78.3322 242.191V247.27Z" fill="white"/>
<path d="M104.453 304.193V309.272H80.2975V304.193L87.0341 302.468L109.65 242.287L119.755 242L141.119 302.468L147.856 304.193V309.272H121.968V304.193L130.052 302.468L126.203 290.681H100.315L96.0804 302.468L104.453 304.193ZM102.625 283.686H124.182L113.98 251.199L102.625 283.686Z" fill="white"/>
<path d="M202.289 290.969C202.289 296.527 200.236 300.967 196.13 304.289C192.088 307.611 185.833 309.272 177.364 309.272H149.936V304.193L157.828 302.373V249.379L149.936 247.749V242.67L167.259 242.191H178.519C185.448 242.191 190.709 243.597 194.302 246.408C197.894 249.155 199.691 253.244 199.691 258.674C199.691 262.891 198.536 266.372 196.226 269.12C193.981 271.803 190.42 273.687 185.544 274.773C190.933 275.412 195.071 277.073 197.959 279.757C200.846 282.44 202.289 286.177 202.289 290.969ZM176.498 249.283H167.644V271.611H174.188C179.192 271.611 183.042 270.685 185.736 268.832C188.431 266.915 189.778 263.977 189.778 260.016C189.778 256.246 188.591 253.531 186.218 251.87C183.908 250.145 180.668 249.283 176.498 249.283ZM176.498 302.181C181.566 302.181 185.448 301.223 188.142 299.306C190.837 297.325 192.184 294.323 192.184 290.298C192.184 286.401 190.965 283.462 188.527 281.482C186.153 279.501 183.01 278.511 179.096 278.511H167.644V302.181H176.498Z" fill="white"/>
<path d="M252.825 292.79H258.792L258.695 309.272H209.615V304.193L217.506 302.373V249.379L209.615 247.749V242.67L227.13 242.191H257.541V258.003H251.67L250.13 249.379H227.322V271.515H250.419V278.511H227.322V302.085H251.285L252.825 292.79Z" fill="white"/>
<path d="M286.238 304.193V309.272H262.66V304.193L269.685 302.468L288.836 275.348L270.551 248.899L263.815 247.749V242.67L289.51 242.191V247.27L282.1 248.995L295.573 268.928L309.142 249.187L301.828 247.749V242.67L325.021 242.191V247.27L317.9 249.379L300 274.39L319.728 302.564L326.273 304.193V309.272H300.096V304.193L308.372 302.468L293.456 280.715L278.635 302.468L286.238 304.193Z" fill="white"/>
<path d="M8.7311 381.09V379.298L15.6789 378.274V339.105H3.84193L2.81263 346.529H0.818359V336.609H33.6916V346.529H31.633L30.6037 339.105H18.8311V378.274L25.7789 379.298V381.09H8.7311Z" fill="white"/>
<path d="M37.6706 381.09V379.298L43.7177 378.274V339.489L37.6706 338.721V336.929L46.9986 336.609H55.1687C59.8434 336.609 63.3816 337.59 65.7833 339.553C68.185 341.473 69.3859 344.268 69.3859 347.937C69.3859 351.266 68.378 353.996 66.3623 356.13C64.3895 358.22 61.4088 359.543 57.4203 360.098C59.436 360.524 60.9585 361.356 61.9878 362.594C63.0171 363.789 64.0249 365.41 65.0114 367.458L70.3509 378.338L74.7254 379.298V381.09H68.1636L62.1808 368.29C61.323 366.413 60.4653 364.941 59.6075 363.874C58.7927 362.765 57.7419 361.975 56.4553 361.506C55.1687 360.994 53.4103 360.738 51.1801 360.738L46.87 360.802V378.274L54.2681 379.298V381.09H37.6706ZM54.7827 339.105H46.87V358.37H52.7241C57.0128 358.37 60.3152 357.516 62.6311 355.81C64.947 354.06 66.105 351.5 66.105 348.129C66.105 345.185 65.14 342.945 63.2101 341.409C61.323 339.873 58.5139 339.105 54.7827 339.105Z" fill="white"/>
<path d="M90.6614 379.298V381.09H75.4149V379.298L80.9474 378.338L96.6442 336.673L99.7964 336.545L114.593 378.338L120.189 379.298V381.09H104.364V379.298L111.119 378.274L107.645 368.162H87.6379L83.9066 378.338L90.6614 379.298ZM88.4742 365.73H106.873L98.0595 339.745L88.4742 365.73Z" fill="white"/>
<path d="M140.512 336.609C144.071 336.609 147.331 337.377 150.29 338.913C153.292 340.449 155.694 342.817 157.495 346.017C159.296 349.175 160.197 353.25 160.197 358.242C160.197 363.277 159.275 367.501 157.431 370.914C155.629 374.285 153.163 376.824 150.033 378.53C146.902 380.237 143.428 381.09 139.611 381.09H121.791V379.298L127.838 378.274V339.553L121.791 338.721V336.929L132.599 336.609H140.512ZM139.675 378.594C142.677 378.594 145.465 377.933 148.038 376.61C150.654 375.245 152.756 373.09 154.343 370.146C155.973 367.159 156.787 363.298 156.787 358.562C156.787 353.911 156.015 350.156 154.471 347.297C152.97 344.439 150.955 342.369 148.424 341.089C145.937 339.766 143.256 339.105 140.383 339.105H130.991V378.594H139.675Z" fill="white"/>
<path d="M198.133 371.362H200.128V381.09H168.155V379.298L174.202 378.274V339.553L168.155 338.721V336.929L177.354 336.609H199.291V345.953H197.297L196.332 339.105H177.354V357.09H194.788V359.522H177.354V378.594H197.168L198.133 371.362Z" fill="white"/>
<path d="M249.976 370.786H251.97V381.09H222.12V379.298L228.167 378.274V339.553L222.12 338.721V336.929L238.203 336.609V338.401L231.32 339.489V378.594H249.011L249.976 370.786Z" fill="white"/>
<path d="M259.836 381.09V379.298L266.784 378.274V339.105H254.947L253.918 346.529H251.924V336.609H284.797V346.529H282.738L281.709 339.105H269.936V378.274L276.884 379.298V381.09H259.836Z" fill="white"/>
<path d="M307.496 336.609C311.056 336.609 314.315 337.377 317.275 338.913C320.277 340.449 322.678 342.817 324.48 346.017C326.281 349.175 327.182 353.25 327.182 358.242C327.182 363.277 326.26 367.501 324.415 370.914C322.614 374.285 320.148 376.824 317.017 378.53C313.887 380.237 310.413 381.09 306.596 381.09H288.776V379.298L294.823 378.274V339.553L288.776 338.721V336.929L299.584 336.609H307.496ZM306.66 378.594C309.662 378.594 312.45 377.933 315.023 376.61C317.639 375.245 319.741 373.09 321.328 370.146C322.957 367.159 323.772 363.298 323.772 358.562C323.772 353.911 323 350.156 321.456 347.297C319.955 344.439 317.939 342.369 315.409 341.089C312.922 339.766 310.241 339.105 307.368 339.105H297.975V378.594H306.66Z" fill="white"/>
<path fill-rule="evenodd" clip-rule="evenodd" d="M111.892 202.495C119.474 204.261 127.316 205.985 136.553 203.67C140.912 202.578 143.356 201.678 146.957 199.884C148.928 198.903 149.7 198.33 151.857 197.446C154.012 196.562 155.844 196.878 157.395 196.134L140.897 211.938L143.572 214.391C148.219 211.208 149.994 209.73 153.347 205.296C155.559 202.372 159.091 197.113 163.756 197.113C166.198 197.113 170.972 204.154 172.429 206.054C176.125 210.874 176.555 210.967 180.881 214.727L184.656 212.256L184.306 211.791C180.985 210.905 171.573 199.591 168.159 196.623C175.164 196.623 181.98 202.674 188.414 204.258C198.8 206.816 202.096 204.452 213.174 204.452C211.519 198.254 192.911 191.731 182.838 191.731H182.349C177.073 191.731 164.057 194.356 162.777 194.177L141.316 190.759L140.759 191.241C128.257 191.241 118.62 196.646 111.892 202.495L111.892 202.495Z" fill="white"/>
<path fill-rule="evenodd" clip-rule="evenodd" d="M168.647 190.263C184.446 190.263 206.1 175.667 209.258 163.841C190.701 165.386 175.673 176.985 168.647 190.263Z" fill="white"/>
<path fill-rule="evenodd" clip-rule="evenodd" d="M108.466 194.666C115.363 194.666 133.745 190.138 134.887 185.859C131.949 185.615 127.723 183.206 123.638 182.919C119.038 182.596 115.155 182.434 110.423 182.434C103.415 182.434 88.5952 186.665 85.959 190.263C90.5405 192.687 97.0573 194.666 104.062 194.666H108.466H108.466Z" fill="white"/>
<path fill-rule="evenodd" clip-rule="evenodd" d="M114.827 176.073C114.827 158.408 101.521 140.647 89.874 134.484C89.874 144.713 93.6564 153.622 97.8005 159.829C100.846 164.391 109.448 174.82 114.827 176.073Z" fill="white"/>
<path fill-rule="evenodd" clip-rule="evenodd" d="M211.705 177.542C224.036 171.017 237.23 154.736 237.637 136.442C230.591 140.17 224.487 146.151 220.118 152.683C217.291 156.908 210.29 171.463 211.705 177.542Z" fill="white"/>
<path fill-rule="evenodd" clip-rule="evenodd" d="M216.6 179.498C224.11 181.248 234.092 184.093 243.308 182.232C249.099 181.063 264.391 177.395 265.528 173.138C260.753 172.026 256.272 170.202 250.36 170.202H244.489C235.953 170.202 219.701 174.867 216.6 179.498Z" fill="white"/>
<path fill-rule="evenodd" clip-rule="evenodd" d="M210.729 183.413C207.067 183.413 192.055 185.744 190.668 187.816C194.295 188.785 198.448 192.221 204.368 193.688C209.381 194.929 214.901 196.623 221.003 196.623C229.049 196.623 233.798 193.327 239.596 193.198C238.338 188.488 218.687 183.413 210.728 183.413H210.729Z" fill="white"/>
<path fill-rule="evenodd" clip-rule="evenodd" d="M156.906 190.262C154.01 177.834 132.888 164.121 117.763 162.862C118.218 168.334 128.652 178.245 133.087 180.809C136.822 182.968 139.45 185.148 143.882 186.65C146.141 187.415 147.686 188.137 149.986 188.864C151.669 189.396 155.794 189.729 156.906 190.262Z" fill="white"/>
<path fill-rule="evenodd" clip-rule="evenodd" d="M60.9609 169.907C62.8974 172.782 71.0953 176.556 75.1058 177.632C81.62 179.38 85.5871 180.477 94.2787 180.477H94.768C100.795 180.477 104.487 178.03 109.447 178.03C108.656 175.07 99.5104 171.54 96.0522 170.386C90.0036 168.367 85.0102 167.755 77.1538 167.755L76.6148 167.44L60.9609 169.906V169.907Z" fill="white"/>
<path fill-rule="evenodd" clip-rule="evenodd" d="M223.938 5.31313V6.29143C223.938 16.4563 227.09 23.1859 231.177 29.3872C233.798 33.363 242.654 42.5502 247.912 42.9879C247.169 41.4402 245.326 33.042 244.55 30.693C243.214 26.6476 241.585 22.9548 239.497 19.5993C235.548 13.2527 230.481 6.92089 224.427 2.86658C224.171 3.96396 223.938 3.99139 223.938 5.31313Z" fill="white"/>
<path fill-rule="evenodd" clip-rule="evenodd" d="M82.5351 40.0522C85.7998 41.5906 97.8657 29.6218 100.062 26.2644C104.441 19.5678 106.999 11.896 106.999 0.909424C101.082 4.04053 94.8952 11.6983 91.2363 17.4392C89.3588 20.3846 81.0741 36.9509 82.5351 40.0522Z" fill="white"/>
<path fill-rule="evenodd" clip-rule="evenodd" d="M229.809 167.756C245.501 167.756 265.421 154.68 268.462 143.291C251.157 143.291 235.989 156.074 229.809 167.756Z" fill="white"/>
<path fill-rule="evenodd" clip-rule="evenodd" d="M96.2353 165.798C93.5724 154.368 73.5995 140.355 59.0498 140.355C60.5002 146.582 68.6429 153.884 73.3198 157.4C75.9635 159.387 80.0092 161.802 83.4357 162.941C85.8203 163.733 94.9668 165.19 96.2353 165.798Z" fill="white"/>
<path fill-rule="evenodd" clip-rule="evenodd" d="M257.21 68.9197C253.881 54.6293 239.739 39.9661 225.406 36.6271C227.291 40.555 226.723 43.59 229.886 47.8044C231.562 50.0384 234.912 55.5595 236.852 56.9854C241.782 60.6097 249.053 68.9197 257.21 68.9197Z" fill="white"/>
<path fill-rule="evenodd" clip-rule="evenodd" d="M72.2598 66.4736C76.0757 64.6429 79.1756 64.4109 83.3213 61.8783C86.8655 59.713 89.6126 57.6845 92.442 54.8525C96.6098 50.6807 103.956 41.8412 104.552 34.67C96.3767 36.5751 89.5608 41.0966 84.3735 46.2947C80.4354 50.2409 72.4164 59.4397 72.2598 66.4736Z" fill="white"/>
<path fill-rule="evenodd" clip-rule="evenodd" d="M265.527 97.2984C269.811 96.3004 277.978 87.9021 280.413 84.2951C283.697 79.4291 287.545 70.9201 287.545 63.0485V59.6237C282.523 60.7937 275.004 69.8806 272.178 74.1033C268.45 79.6739 265.527 88.2455 265.527 97.2984Z" fill="white"/>
<path fill-rule="evenodd" clip-rule="evenodd" d="M252.315 141.334C257.06 143.611 271.382 135.577 274.344 133.516C279.027 130.258 286.407 121.983 288.033 115.891H286.076C281.256 115.891 268.759 122.454 265.658 124.831C257.468 131.109 257.652 133.364 252.315 141.334Z" fill="white"/>
<path fill-rule="evenodd" clip-rule="evenodd" d="M55.133 46.9022C55.133 55.1585 61.102 73.3801 66.4684 74.8057L68.8329 59.1342C70.1624 51.4809 61.5638 34.4024 57.5794 31.7343C57.1839 36.4851 55.1328 40.1523 55.1328 46.9022H55.133Z" fill="white"/>
<path fill-rule="evenodd" clip-rule="evenodd" d="M260.634 63.5379V66.9633C260.634 71.7096 261.743 74.0866 262.591 77.7276C267.975 74.1224 274.823 58.684 274.823 48.8598C274.823 44.8383 274.117 36.7932 271.887 35.1597C271.701 35.858 265.836 43.8455 264.391 47.2344C262.631 51.3598 260.634 57.9282 260.634 63.5382L260.634 63.5379Z" fill="white"/>
<path fill-rule="evenodd" clip-rule="evenodd" d="M242.041 130.081V135.463C242.041 139.877 243.692 143.032 243.998 146.716C249.334 143.143 255.741 128.544 255.741 118.827L256.172 117.774L253.295 103.659C248.702 107.024 242.041 121.785 242.041 130.08L242.041 130.081Z" fill="white"/>
<path fill-rule="evenodd" clip-rule="evenodd" d="M41.4355 57.6665C41.4355 65.6832 44.7762 74.9256 48.0865 79.8834C50.5293 83.5418 59.0821 92.8371 62.9639 93.8735C62.9639 84.9094 59.9627 76.1585 56.6946 70.2967C54.4938 66.3486 45.8314 56.7337 41.4355 55.7095V57.6665Z" fill="white"/>
<path fill-rule="evenodd" clip-rule="evenodd" d="M260.635 123.72C269.825 118.857 271.194 117.59 278.139 110.4C281.497 106.923 287.056 95.4666 287.056 88.4915C275.139 91.2679 261.848 109.135 260.635 123.72Z" fill="white"/>
<path fill-rule="evenodd" clip-rule="evenodd" d="M69.3242 26.8415V33.2024C69.3242 42.9877 71.6955 45.1724 73.2386 51.7952C76.3575 49.7064 81.067 36.677 81.067 30.7559V22.9274C81.067 16.8788 77.6614 12.0431 76.6634 7.75952C73.8929 9.78925 69.3242 21.6523 69.3242 26.8415Z" fill="white"/>
<path fill-rule="evenodd" clip-rule="evenodd" d="M67.3677 120.295C66.762 119.032 65.3542 111.119 64.2366 108.258C62.7088 104.345 61.0143 101.175 58.6557 98.182C55.115 93.6893 47.6115 86.016 41.4355 84.577C42.7533 87.3237 43.1286 93.271 44.4319 96.7484C45.747 100.256 47.7707 103.895 49.9486 106.889C52.5932 110.525 62.634 119.901 67.3675 120.295L67.3677 120.295Z" fill="white"/>
<path fill-rule="evenodd" clip-rule="evenodd" d="M74.706 138.888C73.1304 132.125 66.0333 125.548 61.6255 121.143C56.9326 116.454 47.6403 113.765 39.9668 111.977C40.4319 117.568 49.3913 126.392 53.0473 129.721C56.6168 132.972 68.2853 138.745 74.706 138.888Z" fill="white"/>
<path fill-rule="evenodd" clip-rule="evenodd" d="M248.892 31.245C248.892 38.0755 252.696 51.6511 256.231 54.2414C258.303 45.3497 261.124 44.2242 261.124 31.245V30.2665C261.124 22.4488 257.392 16.1744 254.763 10.6949C251.837 12.8388 248.892 25.5337 248.892 31.245Z" fill="white"/>
<path fill-rule="evenodd" clip-rule="evenodd" d="M72.2598 112.956C72.2598 121.838 73.1232 124.011 75.0001 130.765C76.8469 137.411 80.9357 140.114 82.0455 144.27H83.0241C83.5339 142.082 85.4706 136.168 85.4706 133.995C85.4706 128.046 84.806 119.695 83.1785 115.248C81.3675 110.298 76.4831 104.204 75.6846 101.213H74.7063C73.8295 104.976 72.2598 107.915 72.2598 112.956Z" fill="white"/>
<path fill-rule="evenodd" clip-rule="evenodd" d="M66.3877 95.8306V100.234C66.3877 101.555 66.6214 101.583 66.877 102.681C75.4807 100.384 84.4912 81.411 84.4912 68.4308V66.9633C84.4912 65.6418 84.2575 65.6141 84.0019 64.5167C75.4008 70.2763 66.3877 81.6792 66.3877 95.8308V95.8306Z" fill="white"/>
<path fill-rule="evenodd" clip-rule="evenodd" d="M261.614 105.617C261.614 94.3163 261.835 89.8354 257.865 81.9654C255.683 77.6392 249.327 68.1242 244.978 66.963C244.978 77.796 244.162 81.9985 248.403 90.4486C251.008 95.6393 256.647 102.988 261.614 105.617Z" fill="white"/>
<path d="M122.158 54.8938H141.958L167.939 120.308L182.821 84.3723C188.443 70.8677 192.142 61.0346 193.921 54.894H215.519V57.869C212.006 57.9323 209.566 58.5442 208.161 59.6624C206.776 60.7603 206.073 62.8067 206.073 65.7819C206.073 66.1827 206.094 66.6683 206.135 67.196L210.744 116.531C211.303 122.587 212.254 126.47 213.555 128.221C214.879 129.951 217.524 130.88 221.513 130.986V133.961H191.729V130.986C194.767 130.901 196.896 130.289 198.157 129.129C199.397 127.989 200.017 125.731 200.017 122.398C200.017 121.743 199.976 121.047 199.914 120.308L195.181 71.142C188.277 83.676 183.358 93.4671 180.402 100.515L165.211 136.873H162.482L134.145 64.9173L132.078 87.0945C131.148 97.118 130.694 105.051 130.694 110.897C130.694 123.917 133.876 130.627 140.263 130.986V133.961H112.897V130.986C115.708 130.331 117.961 128.496 119.615 125.457C121.268 122.44 122.963 117.038 124.72 109.272C126.477 101.486 127.758 93.1929 128.564 84.3725L130.094 67.9347C130.135 67.154 130.157 66.3103 130.157 65.4028C130.157 62.4695 129.577 60.5071 128.461 59.4943C127.325 58.4813 125.216 57.9325 122.157 57.8695V54.8945L122.158 54.8938Z" fill="white"/>
</svg>
