<svg width="66" height="58" viewBox="0 0 66 58" fill="none" xmlns="http://www.w3.org/2000/svg">
<path fill-rule="evenodd" clip-rule="evenodd" d="M18.9737 53.7888C20.9738 54.2548 23.0424 54.7096 25.4793 54.0989C26.6291 53.8108 27.2738 53.5733 28.2238 53.1002C28.7437 52.8413 28.9474 52.6903 29.5164 52.4569C30.0849 52.2237 30.5682 52.3072 30.9774 52.1109L26.6251 56.28L27.3307 56.927C28.5567 56.0875 29.0249 55.6974 29.9094 54.5279C30.4928 53.7564 31.4248 52.369 32.6553 52.369C33.2995 52.369 34.5588 54.2267 34.9431 54.7278C35.9182 55.9993 36.0317 56.0237 37.1728 57.0156L38.1686 56.3637L38.0763 56.2412C37.2003 56.0073 34.7175 53.0228 33.8169 52.2399C35.6648 52.2399 37.4629 53.8361 39.1599 54.254C41.8998 54.9288 42.7693 54.3051 45.6915 54.3051C45.255 52.6702 40.3464 50.9493 37.6891 50.9493H37.56C36.1682 50.9493 32.7348 51.6417 32.3971 51.5947L26.7358 50.6929L26.5889 50.8202C23.2907 50.8202 20.7487 52.2459 18.9736 53.7889L18.9737 53.7888Z" fill="white"/>
<path fill-rule="evenodd" clip-rule="evenodd" d="M33.9453 50.5617C38.1129 50.5617 43.8253 46.7115 44.6583 43.5918C39.7631 43.9992 35.7987 47.0592 33.9453 50.5617Z" fill="white"/>
<path fill-rule="evenodd" clip-rule="evenodd" d="M18.0711 51.7236C19.8906 51.7236 24.7396 50.5292 25.041 49.4004C24.2658 49.3359 23.1511 48.7004 22.0735 48.6248C20.86 48.5396 19.8357 48.4968 18.5874 48.4968C16.7386 48.4968 12.8292 49.6129 12.1338 50.562C13.3424 51.2015 15.0615 51.7236 16.9094 51.7236H18.071H18.0711Z" fill="white"/>
<path fill-rule="evenodd" clip-rule="evenodd" d="M19.7487 46.8188C19.7487 42.1588 16.2385 37.4735 13.166 35.8477C13.166 38.546 14.1638 40.8962 15.257 42.5336C16.0605 43.7369 18.3295 46.4882 19.7487 46.8188Z" fill="white"/>
<path fill-rule="evenodd" clip-rule="evenodd" d="M45.3032 47.2058C48.5559 45.4846 52.0365 41.1898 52.144 36.3638C50.2852 37.3473 48.675 38.925 47.5223 40.6481C46.7768 41.7627 44.9297 45.6024 45.3032 47.2058Z" fill="white"/>
<path fill-rule="evenodd" clip-rule="evenodd" d="M46.5957 47.7221C48.5768 48.1837 51.2101 48.9341 53.6414 48.4433C55.169 48.1349 59.203 47.1673 59.5029 46.0442C58.2434 45.7509 57.0613 45.2698 55.5016 45.2698H53.9528C51.7011 45.2698 47.4139 46.5003 46.5957 47.7221Z" fill="white"/>
<path fill-rule="evenodd" clip-rule="evenodd" d="M45.0468 48.7549C44.0808 48.7549 40.1209 49.3699 39.7549 49.9165C40.7118 50.172 41.8073 51.0786 43.3688 51.4654C44.6913 51.793 46.1475 52.2398 47.7573 52.2398C49.8796 52.2398 51.1324 51.3704 52.662 51.3363C52.3301 50.0937 47.1462 48.7549 45.0467 48.7549H45.0468Z" fill="white"/>
<path fill-rule="evenodd" clip-rule="evenodd" d="M30.8492 50.5618C30.0853 47.2831 24.5134 43.6658 20.5234 43.3337C20.6435 44.7772 23.3959 47.3917 24.5661 48.068C25.5512 48.6374 26.2445 49.2127 27.4137 49.6088C28.0096 49.8107 28.417 50.0011 29.0238 50.1929C29.4678 50.3332 30.5559 50.4211 30.8492 50.5618Z" fill="white"/>
<path fill-rule="evenodd" clip-rule="evenodd" d="M5.53906 45.192C6.04989 45.9504 8.21248 46.9462 9.27043 47.23C10.9889 47.6911 12.0354 47.9805 14.3282 47.9805H14.4573C16.0471 47.9805 17.0212 47.3351 18.3295 47.3351C18.121 46.5542 15.7083 45.6228 14.7961 45.3184C13.2004 44.7858 11.8832 44.6246 9.81069 44.6246L9.66851 44.5413L5.53906 45.192V45.192Z" fill="white"/>
<path fill-rule="evenodd" clip-rule="evenodd" d="M48.5303 1.77259V2.03066C48.5303 4.71212 49.3618 6.48739 50.4401 8.12327C51.1315 9.17206 53.4678 11.5956 54.8547 11.7111C54.6588 11.3028 54.1724 9.0874 53.9678 8.46773C53.6153 7.40057 53.1856 6.42641 52.6349 5.54125C51.593 3.86703 50.2564 2.19671 48.6593 1.1272C48.5919 1.41669 48.5303 1.42392 48.5303 1.77259Z" fill="white"/>
<path fill-rule="evenodd" clip-rule="evenodd" d="M11.2289 10.9366C12.0901 11.3424 15.2731 8.18508 15.8524 7.29942C17.0077 5.53287 17.6825 3.50906 17.6825 0.61084C16.1215 1.43682 14.4895 3.45692 13.5243 4.97134C13.029 5.74834 10.8435 10.1185 11.2289 10.9366Z" fill="white"/>
<path fill-rule="evenodd" clip-rule="evenodd" d="M50.0811 44.6245C54.2206 44.6245 59.4755 41.1752 60.2777 38.1709C55.7127 38.1709 51.7115 41.543 50.0811 44.6245Z" fill="white"/>
<path fill-rule="evenodd" clip-rule="evenodd" d="M14.8436 44.108C14.1411 41.0927 8.87235 37.3962 5.03418 37.3962C5.4168 39.0388 7.5648 40.9651 8.79857 41.8925C9.49598 42.4167 10.5632 43.0539 11.4671 43.3541C12.0962 43.5631 14.509 43.9475 14.8436 44.108Z" fill="white"/>
<path fill-rule="evenodd" clip-rule="evenodd" d="M57.3077 18.5519C56.4294 14.7821 52.6988 10.914 48.918 10.0332C49.4152 11.0694 49.2654 11.87 50.0997 12.9818C50.5418 13.5711 51.4255 15.0275 51.9372 15.4037C53.2378 16.3598 55.156 18.5519 57.3077 18.5519Z" fill="white"/>
<path fill-rule="evenodd" clip-rule="evenodd" d="M8.51855 17.9065C9.52518 17.4236 10.3429 17.3624 11.4366 16.6943C12.3715 16.1231 13.0962 15.588 13.8426 14.8409C14.942 13.7404 16.8799 11.4086 17.0373 9.51685C14.8805 10.0194 13.0825 11.2122 11.7141 12.5834C10.6753 13.6244 8.55987 16.051 8.51855 17.9065Z" fill="white"/>
<path fill-rule="evenodd" clip-rule="evenodd" d="M59.5029 26.0381C60.6329 25.7748 62.7874 23.5594 63.4297 22.6079C64.2961 21.3242 65.3111 19.0796 65.3111 17.0031V16.0996C63.9862 16.4083 62.0029 18.8054 61.2574 19.9193C60.274 21.3888 59.5029 23.65 59.5029 26.0381Z" fill="white"/>
<path fill-rule="evenodd" clip-rule="evenodd" d="M56.0166 37.6548C57.2682 38.2555 61.0464 36.136 61.8276 35.5925C63.0631 34.7329 65.0098 32.5502 65.4388 30.9431H64.9226C63.6511 30.9431 60.3545 32.6744 59.5365 33.3014C57.3758 34.9576 57.4244 35.5525 56.0166 37.6548Z" fill="white"/>
<path fill-rule="evenodd" clip-rule="evenodd" d="M4.00006 12.7437C4.00006 14.9217 5.57465 19.7285 6.9903 20.1046L7.61405 15.9705C7.96476 13.9515 5.69648 9.44627 4.64539 8.74243C4.54107 9.99568 4 10.9631 4 12.7437H4.00006Z" fill="white"/>
<path fill-rule="evenodd" clip-rule="evenodd" d="M58.212 17.1324V18.0359C58.212 19.288 58.5045 19.915 58.7283 20.8755C60.1484 19.9245 61.955 15.8519 61.955 13.2603C61.955 12.1994 61.7688 10.0772 61.1806 9.64624C61.1314 9.83047 59.5843 11.9375 59.203 12.8315C58.7387 13.9198 58.2119 15.6525 58.2119 17.1324L58.212 17.1324Z" fill="white"/>
<path fill-rule="evenodd" clip-rule="evenodd" d="M53.3067 34.686V36.1057C53.3067 37.2702 53.7421 38.1024 53.823 39.0744C55.2306 38.1319 56.9207 34.2807 56.9207 31.7173L57.0344 31.4396L56.2753 27.7161C55.0637 28.6038 53.3066 32.4977 53.3066 34.6859L53.3067 34.686Z" fill="white"/>
<path fill-rule="evenodd" clip-rule="evenodd" d="M0.387695 15.5834C0.387695 17.6982 1.26896 20.1363 2.14219 21.4442C2.78659 22.4092 5.04281 24.8613 6.06681 25.1347C6.06681 22.77 5.2751 20.4615 4.413 18.9152C3.83242 17.8737 1.54732 15.3373 0.387695 15.0671V15.5834Z" fill="white"/>
<path fill-rule="evenodd" clip-rule="evenodd" d="M58.2119 33.0083C60.6363 31.7255 60.9974 31.3913 62.8296 29.4944C63.7154 28.5773 65.1818 25.5551 65.1818 23.7151C62.0381 24.4475 58.5321 29.1609 58.2119 33.0083Z" fill="white"/>
<path fill-rule="evenodd" clip-rule="evenodd" d="M7.74414 7.45175V9.12974C7.74414 11.7111 8.36968 12.2874 8.77674 14.0345C9.5995 13.4834 10.8419 10.0463 10.8419 8.48435V6.41922C10.8419 4.82361 9.94347 3.54797 9.6802 2.41797C8.94934 2.95341 7.74414 6.08286 7.74414 7.45175Z" fill="white"/>
<path fill-rule="evenodd" clip-rule="evenodd" d="M7.22854 32.1047C7.06873 31.7715 6.69737 29.6842 6.40256 28.9293C5.99953 27.8971 5.55253 27.0609 4.93032 26.2713C3.99631 25.0862 2.01689 23.062 0.387695 22.6824C0.735316 23.4069 0.834327 24.9758 1.17811 25.8931C1.52505 26.8185 2.05888 27.7783 2.63341 28.5681C3.33106 29.5273 5.9798 32.0007 7.22848 32.1046L7.22854 32.1047Z" fill="white"/>
<path fill-rule="evenodd" clip-rule="evenodd" d="M9.1641 37.0094C8.74846 35.2254 6.87628 33.4903 5.7135 32.3284C4.47553 31.0914 2.02425 30.382 0 29.9104C0.122697 31.3854 2.48616 33.7131 3.4506 34.5913C4.39222 35.4489 7.47034 36.9717 9.1641 37.0094Z" fill="white"/>
<path fill-rule="evenodd" clip-rule="evenodd" d="M55.1143 8.61367C55.1143 10.4155 56.1177 13.9967 57.0504 14.6801C57.5968 12.3345 58.3411 12.0376 58.3411 8.61367V8.35554C58.3411 6.29326 57.3567 4.63809 56.6631 3.19263C55.8911 3.75818 55.1143 7.10705 55.1143 8.61367Z" fill="white"/>
<path fill-rule="evenodd" clip-rule="evenodd" d="M8.51855 30.1683C8.51855 32.5115 8.74632 33.0846 9.24144 34.8664C9.72864 36.6196 10.8072 37.3326 11.1 38.4289H11.3581C11.4927 37.8517 12.0035 36.2917 12.0035 35.7184C12.0035 34.1491 11.8282 31.9461 11.3989 30.7729C10.9212 29.4672 9.63266 27.8595 9.42202 27.0706H9.16395C8.93266 28.0633 8.51855 28.8387 8.51855 30.1683Z" fill="white"/>
<path fill-rule="evenodd" clip-rule="evenodd" d="M6.96973 25.6509V26.8126C6.96973 27.1611 7.03138 27.1684 7.09879 27.458C9.36844 26.852 11.7454 21.847 11.7454 18.4229V18.0358C11.7454 17.6872 11.6837 17.6799 11.6163 17.3904C9.34735 18.9097 6.96973 21.9178 6.96973 25.651V25.6509Z" fill="white"/>
<path fill-rule="evenodd" clip-rule="evenodd" d="M58.4685 28.2326C58.4685 25.2516 58.5269 24.0696 57.4796 21.9935C56.9039 20.8522 55.2272 18.3422 54.0801 18.0359C54.0801 20.8936 53.8648 22.0022 54.9836 24.2313C55.6708 25.6006 57.1583 27.5393 58.4685 28.2326Z" fill="white"/>
<path d="M21.6811 14.8518H26.9044L33.7582 32.108L37.6838 22.6281C39.1669 19.0657 40.1429 16.4717 40.612 14.8519H46.3096V15.6367C45.3828 15.6534 44.7393 15.8148 44.3684 16.1098C44.0033 16.3994 43.8178 16.9392 43.8178 17.724C43.8178 17.8298 43.8234 17.9579 43.8342 18.0971L45.05 31.1115C45.1973 32.7091 45.4482 33.7333 45.7916 34.1954C46.1406 34.6518 46.8386 34.8967 47.8908 34.9246V35.7094H40.0338V34.9246C40.8353 34.9023 41.3969 34.7409 41.7295 34.4347C42.0566 34.1341 42.2202 33.5386 42.2202 32.6591C42.2202 32.4865 42.2093 32.3028 42.193 32.108L40.9444 19.138C39.1233 22.4445 37.8256 25.0274 37.0459 26.8866L33.0383 36.4777H32.3185L24.8433 17.496L24.2981 23.3463C24.0526 25.9904 23.9329 28.0833 23.9329 29.6253C23.9329 33.0599 24.7724 34.83 26.4574 34.9247V35.7095H19.2383V34.9247C19.9797 34.752 20.5741 34.2678 21.0103 33.4663C21.4465 32.6702 21.8935 31.2452 22.357 29.1968C22.8205 27.1427 23.1586 24.955 23.3711 22.6282L23.7747 18.292C23.7855 18.086 23.7912 17.8634 23.7912 17.624C23.7912 16.8503 23.6384 16.3326 23.344 16.0654C23.0441 15.7982 22.4878 15.6534 21.681 15.6368V14.852L21.6811 14.8518Z" fill="white"/>
</svg>
