<svg width="19" height="17" viewBox="0 0 19 17" fill="none" xmlns="http://www.w3.org/2000/svg">
<path fill-rule="evenodd" clip-rule="evenodd" d="M16.7611 2.63301C17.5659 2.1324 18.184 1.34148 18.4746 0.39856C17.7213 0.86145 16.8874 1.19747 15.9988 1.37806C15.2879 0.59286 14.2752 0.102539 13.154 0.102539C11.0012 0.102539 9.25521 1.91067 9.25521 4.14168C9.25521 4.45942 9.29098 4.76687 9.35692 5.06289C6.1176 4.89488 3.24603 3.28562 1.32345 0.84202C0.986998 1.43863 0.795858 2.1324 0.795858 2.87302C0.795858 4.27427 1.48441 5.51093 2.52953 6.23441C1.89016 6.21383 1.2888 6.03211 0.764561 5.72923C0.764561 5.74637 0.764561 5.76351 0.764561 5.78066C0.764561 7.73737 2.10701 9.36949 3.89099 9.74094C3.56348 9.83352 3.22032 9.88267 2.86375 9.88267C2.61337 9.88267 2.36857 9.85752 2.13049 9.80952C2.62678 11.4142 4.06648 12.5823 5.77221 12.6154C4.43758 13.6978 2.75644 14.3436 0.929992 14.3436C0.615896 14.3436 0.305154 14.3253 0 14.2876C1.72473 15.4339 3.77362 16.1025 5.97564 16.1025C13.1451 16.1025 17.0662 9.94781 17.0662 4.61029C17.0662 4.43428 17.0618 4.26169 17.0551 4.08797C17.8163 3.51878 18.478 2.80673 19 1.99753C18.3014 2.31755 17.5491 2.53471 16.7611 2.63301Z" fill="white"/>
</svg>
