<svg width="23" height="15" viewBox="0 0 23 15" fill="none" xmlns="http://www.w3.org/2000/svg">
<path d="M19.7971 8.99538C20.5872 9.7663 21.3391 10.5787 22.0498 11.4295C22.3608 11.8151 22.6315 12.2341 22.8573 12.6795C23.1677 13.3252 22.8865 14.0362 22.3475 14.0748H18.9965C18.5956 14.1059 18.1934 14.0376 17.8226 13.8757C17.4519 13.7138 17.1231 13.4628 16.8632 13.1432C16.3991 12.6357 15.9698 12.0948 15.5235 11.5706C15.3469 11.3525 15.1443 11.1589 14.9205 10.9945C14.8363 10.9146 14.7344 10.8576 14.624 10.8286C14.5136 10.7996 14.398 10.7995 14.2876 10.8284C14.1771 10.8572 14.0752 10.914 13.9909 10.9938C13.9066 11.0736 13.8425 11.1738 13.8044 11.2856C13.5677 11.811 13.447 12.385 13.4514 12.9654C13.4153 13.8132 13.1771 14.0362 12.3843 14.0748C10.7155 14.2139 9.04506 13.8274 7.58947 12.9654C6.30686 12.1325 5.2075 11.0266 4.36336 9.72019C2.67759 7.17254 1.2539 4.44695 0.115825 1.58852C-0.152103 0.947573 0.0454142 0.603512 0.701975 0.591122C1.79518 0.568248 2.88838 0.570154 3.9825 0.591122C4.18897 0.595769 4.38861 0.669131 4.55223 0.800483C4.71585 0.931835 4.83487 1.11429 4.8919 1.32118C5.4699 2.87967 6.21582 4.3647 7.11533 5.74776C7.33645 6.12791 7.62088 6.4639 7.95524 6.73991C8.34387 7.02584 8.64106 6.93053 8.82395 6.4659C8.93288 6.1684 8.99793 5.85542 9.01689 5.5376C9.11762 4.45418 9.09891 3.3623 8.96111 2.28331C8.94299 1.98038 8.82673 1.69284 8.63137 1.46775C8.43601 1.24267 8.17312 1.09337 7.88574 1.04431C7.56569 0.979025 7.61141 0.850836 7.76824 0.654501C7.88087 0.479191 8.03442 0.33661 8.21445 0.240161C8.39449 0.143712 8.5951 0.0965624 8.79743 0.103145H12.5845C13.1789 0.229428 13.3133 0.517258 13.3947 1.16202L13.3979 5.68152C13.3915 5.93123 13.5141 6.67129 13.9324 6.83665C14.2671 6.95436 14.4879 6.66653 14.6886 6.43826C15.5632 5.38055 16.2817 4.19302 16.8206 2.91473C17.0771 2.35861 17.298 1.78056 17.5115 1.20348C17.5604 1.01043 17.6731 0.841591 17.8298 0.726757C17.9865 0.611923 18.177 0.558483 18.3679 0.575872L22.0128 0.579685C22.1198 0.577088 22.2269 0.584103 22.3328 0.600652C22.9469 0.713116 23.1151 0.997133 22.9272 1.64142C22.5836 2.61516 22.0946 3.52625 21.4783 4.34101C20.8707 5.24644 20.2205 6.11708 19.6174 7.02631C19.0637 7.85645 19.1076 8.27485 19.7957 8.99585L19.7971 8.99538Z" fill="white"/>
</svg>
